<?xml version="1.0" standalone="no"?>
<!DOCTYPE svg PUBLIC "-//W3C//DTD SVG 20010904//EN"
 "http://www.w3.org/TR/2001/REC-SVG-20010904/DTD/svg10.dtd">
<svg version="1.0" xmlns="http://www.w3.org/2000/svg"
 width="192.000000pt" height="192.000000pt" viewBox="0 0 192.000000 192.000000"
 preserveAspectRatio="xMidYMid meet">
<g transform="translate(0.000000,192.000000) scale(0.100000,-0.100000)"
fill="#000000" stroke="none">
<path d="M602 1905 c-13 -7 -20 -15 -15 -18 4 -3 24 3 43 14 25 13 29 18 15
18 -11 -1 -31 -7 -43 -14z"/>
<path d="M1319 1898 c87 -43 223 -204 220 -260 0 -9 -3 -8 -7 2 -32 71 -119
172 -189 221 -47 33 -60 36 -60 14 0 -8 4 -12 8 -9 11 7 70 -31 61 -40 -4 -4
0 -6 8 -4 8 2 14 -3 13 -9 -2 -7 3 -12 10 -10 7 1 11 -6 9 -18 -2 -15 0 -17 6
-6 6 8 12 9 16 3 12 -19 -13 -23 -56 -9 -68 22 -98 28 -98 18 0 -5 39 -21 86
-35 131 -41 141 -46 124 -56 -8 -5 -19 -5 -25 -1 -13 10 -89 37 -143 51 -24 6
-51 14 -60 17 -10 3 -8 -1 6 -11 22 -17 22 -36 0 -36 -6 0 -8 3 -5 7 7 7 -1
12 -80 55 -28 15 -53 24 -57 21 -3 -4 -6 -1 -6 5 0 7 -9 12 -21 12 -11 0 -18
4 -15 8 2 4 -14 8 -37 9 l-42 2 65 -25 c36 -13 76 -30 90 -36 37 -17 129 -85
173 -126 20 -20 37 -31 37 -26 0 6 -13 23 -30 39 -16 15 -27 32 -24 37 3 5 -1
8 -9 6 -9 -2 -16 0 -16 5 -1 4 2 7 5 6 4 0 10 5 14 12 6 9 17 7 45 -10 21 -12
44 -20 51 -17 7 3 14 0 16 -6 2 -5 22 -11 43 -12 29 -1 41 -6 43 -19 2 -9 8
-17 13 -17 5 0 9 -7 9 -15 0 -8 6 -15 13 -15 8 0 7 -4 -3 -10 -8 -5 -10 -10
-4 -10 7 0 10 -14 8 -35 -1 -23 1 -33 8 -29 6 4 8 2 5 -3 -4 -6 -8 -37 -10
-69 -3 -33 -2 -49 0 -36 4 19 7 21 19 12 10 -9 11 -17 3 -32 -12 -23 -18 -261
-6 -249 5 5 10 61 12 126 3 65 6 120 9 122 2 2 7 -40 10 -94 3 -54 10 -119 14
-146 5 -26 6 -50 3 -53 -3 -3 -6 -13 -6 -21 0 -9 -12 -20 -27 -24 -24 -6 -27
-4 -31 20 -3 21 -4 19 -6 -10 l-1 -35 42 5 c49 7 56 20 57 121 0 64 -56 354
-58 296 -1 -20 -4 -27 -11 -20 -7 7 -7 21 1 43 8 23 8 47 2 82 -12 58 -6 99
13 99 8 0 14 -5 14 -12 0 -19 110 -159 121 -153 5 4 2 18 -8 35 -9 16 -19 27
-21 25 -3 -2 -18 17 -34 43 -17 26 -39 57 -50 69 -11 12 -20 33 -20 47 0 15
-4 26 -8 26 -4 0 -7 13 -8 29 0 17 -5 39 -11 49 -8 16 -7 21 6 26 20 8 66 -21
57 -36 -4 -6 -3 -8 3 -5 11 7 63 -46 63 -63 0 -5 4 -10 9 -10 5 0 11 -10 13
-22 2 -13 9 -23 15 -23 31 0 93 -188 76 -230 -3 -9 0 -22 7 -30 21 -26 -5 -16
-28 10 -13 14 -19 32 -16 42 5 15 4 16 -6 3 -10 -13 -11 -11 -7 7 4 20 2 21
-14 12 -10 -5 -19 -12 -19 -14 0 -3 20 -32 45 -66 25 -34 45 -68 45 -76 0 -9
-9 -32 -21 -53 -20 -35 -20 -39 -5 -84 17 -50 21 -86 8 -70 -4 5 -16 35 -27
68 -20 61 -33 63 -16 2 6 -22 6 -38 0 -42 -5 -3 1 -14 13 -24 21 -18 21 -19 4
-20 -13 0 -16 -3 -8 -12 13 -17 75 -385 68 -404 -6 -15 62 -264 98 -359 l15
-40 0 35 c1 49 -15 111 -30 121 -7 4 -13 24 -12 43 1 20 -3 34 -7 31 -7 -5
-26 80 -21 99 1 5 -1 16 -5 25 -3 9 -6 37 -5 62 2 26 -2 50 -8 54 -6 3 -11 21
-11 38 0 18 -6 66 -14 107 -25 128 -28 188 -10 215 9 14 11 25 5 29 -16 10
-24 88 -12 119 12 30 31 37 31 10 0 -9 3 -14 6 -10 7 7 -11 153 -32 257 -22
105 -66 187 -86 158 -6 -9 -7 -6 -3 8 4 17 -8 36 -59 88 -35 36 -69 66 -75 66
-7 0 -9 5 -6 10 7 12 -54 -21 -97 -52 -16 -11 -28 -15 -28 -9 0 11 69 65 93
74 7 2 8 8 4 13 -4 5 -11 4 -15 -2 -4 -6 -22 -16 -39 -23 -18 -8 -33 -17 -33
-21 0 -23 -33 -14 -71 21 -30 27 -52 39 -74 39 -29 0 -29 -1 14 -22z m214
-116 c4 -26 9 -60 13 -76 5 -19 3 -27 -4 -23 -9 6 -26 64 -36 129 -3 19 -1 25
9 22 7 -3 15 -26 18 -52z m-45 13 c-3 -3 -9 2 -12 12 -6 14 -5 15 5 6 7 -7 10
-15 7 -18z"/>
<path d="M622 1875 c-48 -23 -71 -39 -66 -46 4 -8 3 -9 -5 -5 -13 9 -69 -24
-97 -56 -19 -23 -19 -23 1 -6 12 10 43 27 70 39 28 12 61 33 75 46 19 19 31
23 55 19 22 -4 26 -3 15 4 -13 8 -13 10 1 10 9 0 22 7 29 15 19 23 1 18 -78
-20z"/>
<path d="M528 1865 c-20 -13 -39 -21 -43 -17 -5 4 -5 2 -1 -5 3 -7 -2 -14 -14
-18 -11 -3 -20 -11 -20 -16 0 -5 -5 -9 -10 -9 -6 0 -21 -12 -33 -26 -20 -23
-30 -26 -103 -28 -44 -2 -88 -7 -98 -13 -12 -7 12 -9 80 -7 95 3 99 4 133 37
43 40 96 79 135 99 16 8 24 18 19 21 -5 3 -26 -5 -45 -18z"/>
<path d="M773 1864 c-13 -14 -18 -24 -11 -22 10 4 45 48 37 48 -2 0 -14 -12
-26 -26z"/>
<path d="M1616 1861 c29 -18 95 -96 153 -181 25 -37 64 -205 77 -334 6 -62 8
-67 16 -41 12 42 -24 273 -51 324 -7 12 -10 25 -7 30 3 4 -11 27 -30 50 -20
22 -32 41 -29 41 4 0 -9 15 -29 33 -20 19 -33 37 -29 42 5 4 3 6 -2 2 -6 -3
-21 8 -34 24 -13 16 -33 29 -45 29 -18 0 -17 -3 10 -19z"/>
<path d="M980 1800 c0 -6 5 -8 11 -4 6 3 14 3 18 -2 5 -8 83 -39 115 -47 17
-4 45 -30 40 -38 -2 -4 6 -5 18 -1 14 3 19 2 14 -6 -4 -7 -2 -12 3 -12 6 0 20
-9 30 -19 11 -11 29 -24 40 -31 12 -6 20 -16 18 -23 -1 -7 4 -11 12 -9 8 2 18
-3 22 -10 5 -7 9 -8 9 -3 0 14 -86 95 -135 127 -88 56 -215 102 -215 78z"/>
<path d="M515 1776 c-50 -24 -102 -62 -98 -75 1 -4 -8 -8 -19 -8 -20 -2 -20
-1 -2 20 l19 22 -22 -19 c-13 -10 -20 -23 -17 -28 3 -5 -14 -39 -39 -76 -61
-91 -142 -263 -162 -342 -9 -36 -20 -79 -24 -96 -5 -17 -9 -76 -10 -131 -2
-83 2 -112 25 -183 29 -92 86 -186 129 -214 29 -19 29 -18 -17 51 -80 118
-120 420 -77 578 12 46 50 128 62 133 4 2 7 13 7 24 0 13 5 18 13 15 10 -4 13
3 12 24 -1 15 2 26 7 23 4 -3 9 1 10 8 0 7 2 18 3 23 2 6 3 17 4 25 1 13 2 13
11 0 8 -12 10 -11 10 7 0 26 27 56 42 47 7 -4 8 -2 4 5 -10 16 15 70 37 77 9
3 15 10 12 15 -4 5 4 13 17 19 13 5 34 18 47 28 18 15 31 18 51 12 17 -5 35
-3 51 6 26 15 18 19 -9 5 -9 -5 -26 -5 -37 0 -18 7 -17 8 7 8 15 1 30 6 33 11
10 17 -27 10 -80 -14z"/>
<path d="M609 1740 c-42 -34 -59 -53 -58 -64 0 -7 3 -6 5 1 6 13 34 6 34 -9 0
-5 -5 -6 -12 -2 -8 5 -9 2 -5 -11 4 -9 3 -23 -2 -29 -24 -29 -30 -219 -12
-396 10 -109 55 -282 82 -320 8 -12 9 -11 4 7 -3 12 -12 57 -19 100 -8 43 -24
125 -36 183 -18 88 -21 127 -17 245 5 142 28 267 54 293 27 28 15 29 -18 2z"/>
<path d="M527 1723 c-4 -3 -7 -11 -7 -17 0 -6 5 -5 12 2 6 6 9 14 7 17 -3 3
-9 2 -12 -2z"/>
<path d="M627 1679 c-30 -93 -40 -178 -34 -313 6 -157 31 -258 89 -366 23 -41
48 -90 58 -109 l17 -33 17 36 c9 20 20 58 23 86 3 27 9 47 14 44 19 -12 51
172 47 272 -3 63 -4 58 -16 -65 -14 -142 -21 -172 -33 -131 -6 21 -7 20 -6
-10 0 -19 -5 -45 -11 -57 -7 -12 -12 -33 -12 -47 0 -14 -5 -28 -10 -31 -6 -4
-10 -12 -9 -18 1 -7 1 -23 0 -37 -2 -23 -3 -23 -16 9 -8 18 -12 38 -8 44 3 6
1 7 -5 3 -7 -4 -14 3 -18 19 -3 14 -10 25 -16 25 -5 0 -6 9 -3 20 4 14 1 22
-10 26 -10 4 -15 14 -12 25 3 11 1 16 -5 13 -6 -4 -8 2 -3 16 5 15 3 20 -3 16
-6 -4 -15 16 -22 51 -6 32 -14 65 -17 73 -16 38 -17 249 -2 319 5 25 11 61 14
78 2 18 6 46 10 63 10 47 0 35 -18 -21z"/>
<path d="M195 1700 c-3 -5 -1 -10 4 -10 6 0 11 5 11 10 0 6 -2 10 -4 10 -3 0
-8 -4 -11 -10z"/>
<path d="M230 1699 c0 -6 9 -9 20 -6 11 3 18 2 15 -3 -5 -9 52 -6 61 3 3 3 12
3 20 0 8 -3 14 0 14 6 0 7 -24 11 -65 11 -41 0 -65 -4 -65 -11z"/>
<path d="M327 1682 c-4 -6 -13 -10 -20 -8 -7 1 -9 1 -4 -1 14 -8 -4 -22 -21
-17 -13 5 -14 4 -3 -4 11 -8 10 -16 -10 -43 -13 -19 -24 -37 -24 -41 0 -4 -15
-19 -34 -33 -31 -22 -33 -30 -9 -26 4 0 5 -7 1 -17 -9 -28 55 49 78 93 12 22
30 50 41 62 11 12 18 27 16 34 -3 10 -6 10 -11 1z"/>
<path d="M476 1658 c-24 -25 -38 -53 -54 -114 -12 -44 -22 -92 -22 -106 0 -14
-7 -28 -15 -32 -9 -3 -15 -18 -15 -38 0 -18 -4 -73 -9 -123 -10 -102 -3 -243
18 -327 5 -20 6 -40 2 -44 -3 -4 0 -4 7 0 8 5 13 0 14 -13 0 -12 1 -27 2 -33
1 -7 6 -16 11 -20 6 -5 4 -8 -5 -8 -9 0 -11 -3 -5 -8 13 -9 37 -84 24 -76 -15
9 -10 -13 6 -26 8 -7 15 -18 15 -24 0 -18 -49 47 -50 66 0 9 -4 20 -10 23 -5
3 -10 15 -10 26 0 10 -4 27 -9 37 -21 39 -30 73 -33 124 -1 22 -5 32 -10 25
-5 -8 -8 -5 -9 8 0 11 -2 29 -5 40 -2 11 -8 40 -13 65 -4 25 -9 36 -11 25 -11
-104 44 -296 122 -422 11 -18 17 -33 13 -33 -24 0 -104 143 -129 231 -14 49
-36 194 -38 244 0 11 -2 14 -5 8 -3 -7 -9 -13 -14 -13 -11 0 -1 111 17 174 19
66 18 73 -5 47 -54 -62 -56 -356 -4 -501 16 -44 59 -105 74 -105 4 0 11 -4 16
-9 5 -5 2 -6 -6 -1 -10 6 -12 4 -7 -4 5 -7 14 -10 22 -7 8 3 11 0 8 -8 -5 -12
64 -76 81 -76 4 0 23 -14 42 -30 38 -34 59 -39 48 -12 -9 21 -21 66 -42 150
-8 34 -19 62 -23 62 -9 0 6 -87 25 -141 18 -49 18 -52 6 -44 -13 7 -49 120
-56 170 -2 22 -9 56 -15 75 -32 108 -52 365 -36 442 66 301 67 304 110 356 15
17 25 32 21 32 -4 0 -22 -15 -39 -32z m-229 -630 c1 -35 0 -38 -7 -18 -11 34
-12 72 -2 66 5 -3 9 -24 9 -48z m13 -62 c0 -3 -4 -8 -10 -11 -5 -3 -10 -1 -10
4 0 6 5 11 10 11 6 0 10 -2 10 -4z m24 -118 c10 -39 7 -44 -9 -14 -17 33 -18
36 -6 36 5 0 11 -10 15 -22z"/>
<path d="M120 1648 c-7 -18 -12 -36 -11 -40 0 -5 -3 -8 -9 -8 -5 0 -6 -8 -3
-17 5 -12 12 -1 25 37 20 58 18 81 -2 28z"/>
<path d="M1099 1643 c21 -21 55 -63 76 -93 21 -31 34 -44 30 -30 -4 14 -12 27
-16 28 -5 2 -9 9 -9 16 0 15 -94 116 -108 116 -6 0 7 -17 27 -37z"/>
<path d="M517 1637 c-33 -39 -53 -90 -83 -202 -25 -96 -29 -127 -29 -250 0
-145 2 -154 66 -335 21 -60 22 -65 20 -74 -1 -4 5 -19 14 -32 9 -14 13 -29 10
-34 -3 -6 -1 -10 4 -10 6 0 11 -8 11 -17 0 -10 10 -29 21 -43 17 -20 19 -21
13 -5 -4 11 -7 31 -8 45 0 14 -10 34 -21 45 -12 11 -24 28 -28 38 -5 14 -4 15
13 4 11 -6 23 -20 26 -29 4 -13 13 -17 32 -13 20 3 37 -3 62 -25 23 -20 43
-28 61 -26 35 4 84 42 68 52 -7 4 -17 0 -24 -9 -12 -17 -69 -28 -72 -14 -1 5
-13 17 -27 28 -16 13 -22 25 -19 39 4 15 2 19 -10 14 -10 -3 -18 2 -22 15 -4
15 -15 21 -36 21 -16 0 -29 -4 -29 -8 0 -10 41 -48 57 -53 7 -2 9 -9 5 -16
-11 -17 -81 46 -85 77 -2 14 -9 36 -14 50 -20 47 -33 171 -34 305 0 108 -3
136 -15 143 -10 6 -12 17 -7 42 7 34 7 34 14 10 6 -20 7 -17 6 15 -1 77 17
146 57 218 30 53 31 68 3 34z m-72 -379 c-4 -24 -8 -48 -9 -55 -1 -7 -5 -16
-9 -19 -9 -9 -9 43 -1 85 10 49 28 38 19 -11z m-7 -123 c-3 -3 -9 2 -12 12 -6
14 -5 15 5 6 7 -7 10 -15 7 -18z m-1 -67 c-3 -7 -5 -2 -5 12 0 14 2 19 5 13 2
-7 2 -19 0 -25z"/>
<path d="M1066 1618 c16 -18 38 -41 49 -50 11 -10 16 -18 10 -18 -6 0 -6 -3 0
-8 6 -4 26 -27 44 -52 42 -56 33 -29 -14 45 -19 31 -40 53 -45 50 -6 -3 -10 0
-10 8 0 15 -41 57 -55 57 -5 0 4 -15 21 -32z"/>
<path d="M144 1625 c-3 -8 -3 -18 0 -24 3 -5 1 -11 -4 -13 -20 -6 -31 -81 -37
-243 -3 -88 -9 -167 -14 -175 -11 -19 -11 269 1 335 7 47 5 75 -3 44 -16 -55
-27 -152 -28 -254 -1 -67 -7 -154 -14 -195 -7 -41 -12 -93 -10 -115 2 -37 -2
-59 -20 -110 -4 -11 3 -4 15 15 16 25 24 53 25 96 1 33 8 70 14 82 6 11 11 28
11 38 0 9 11 40 24 68 13 28 29 78 35 111 14 76 38 154 52 171 7 8 7 19 2 29
-8 14 -11 14 -22 1 -7 -8 -13 -23 -14 -35 0 -11 -5 -17 -9 -15 -9 6 -11 -6 -9
-46 1 -22 0 -23 -8 -5 -9 23 -8 126 2 142 4 6 4 19 0 29 -4 12 -3 15 5 10 7
-4 12 -1 13 6 0 7 2 25 3 41 2 30 -2 35 -10 12z"/>
<path d="M886 1605 c8 -37 14 -45 14 -19 0 10 -5 26 -10 34 -8 11 -9 7 -4 -15z"/>
<path d="M1563 1615 c3 -11 13 -65 23 -120 13 -73 20 -93 25 -75 5 21 7 18 12
-20 14 -106 23 -201 19 -205 -10 -10 -9 -145 1 -145 6 0 7 -3 4 -6 -4 -4 -28
-9 -54 -11 -65 -5 -72 -8 -66 -32 5 -18 7 -19 27 -6 33 22 89 27 82 8 -3 -8
-6 -22 -6 -31 -1 -15 -2 -15 -15 2 -13 17 -18 17 -45 6 -29 -12 -30 -14 -30
-84 0 -39 -3 -82 -6 -96 -5 -25 -5 -24 20 5 28 32 60 94 54 101 -3 2 -11 -8
-19 -24 -16 -31 -39 -58 -39 -45 0 5 5 14 12 21 9 9 9 12 1 12 -8 0 -9 9 -3
28 4 16 4 36 -2 45 -6 12 -5 17 4 19 7 0 20 2 28 3 8 1 21 -4 29 -9 10 -8 15
-8 18 2 3 6 9 12 14 12 6 0 6 -7 0 -19 -6 -10 -12 -33 -13 -50 -1 -17 -5 -31
-9 -31 -4 0 -21 -22 -37 -49 -17 -27 -44 -57 -61 -67 -17 -10 -31 -22 -31 -27
0 -4 5 -5 12 -1 11 7 9 -10 -8 -50 -5 -13 -4 -17 4 -13 6 4 13 21 17 37 4 17
11 30 16 30 6 0 7 5 3 12 -5 8 -2 9 9 5 12 -4 17 -1 17 11 0 13 2 14 9 4 7
-11 9 -10 14 3 4 9 3 13 -3 10 -16 -10 -12 3 16 45 15 22 31 37 36 34 6 -4 5
-9 -2 -14 -7 -4 -9 -13 -5 -20 5 -9 10 -9 19 0 11 11 17 313 7 334 -2 5 -6 55
-7 110 -2 56 -10 124 -18 151 -8 28 -25 84 -36 125 -12 41 -26 80 -32 85 -7 7
-9 4 -5 -10z"/>
<path d="M934 1590 c3 -14 16 -64 30 -112 29 -103 75 -367 85 -488 7 -84 7
-84 15 -38 5 26 5 55 2 65 -4 9 -3 19 2 22 4 3 6 31 3 61 -5 52 -5 53 -12 20
l-6 -35 -2 37 c0 20 3 38 9 40 5 2 7 13 4 25 -4 14 -11 20 -18 16 -8 -5 -8 -3
0 8 16 20 10 84 -15 149 -12 30 -19 45 -17 33 2 -13 1 -23 -4 -23 -7 0 -20 47
-21 80 0 13 -12 47 -39 115 -5 11 -11 27 -14 35 -3 8 -4 4 -2 -10z m83 -262
c-3 -7 -5 -2 -5 12 0 14 2 19 5 13 2 -7 2 -19 0 -25z m23 -68 c6 -20 6 -30 1
-24 -11 10 -27 72 -17 63 4 -4 11 -21 16 -39z"/>
<path d="M361 1574 c0 -11 3 -14 6 -6 3 7 2 16 -1 19 -3 4 -6 -2 -5 -13z"/>
<path d="M906 1561 c-5 -8 -4 -16 3 -20 6 -4 9 -15 5 -24 -5 -13 -2 -16 10
-11 11 4 13 11 7 22 -4 10 -10 24 -13 32 -3 11 -6 11 -12 1z"/>
<path d="M1628 1532 c10 -24 21 -42 26 -40 11 4 35 -43 36 -72 1 -14 11 -52
24 -85 l23 -60 16 32 c10 18 17 38 17 45 0 7 -23 46 -51 86 -38 54 -54 70 -60
60 -7 -10 -9 -8 -9 7 0 11 -9 31 -20 45 l-20 25 18 -43z m122 -187 c0 -5 -5
-3 -10 5 -5 8 -10 20 -10 25 0 6 5 3 10 -5 5 -8 10 -19 10 -25z"/>
<path d="M935 1475 c26 -129 36 -217 38 -325 2 -69 7 -131 11 -139 5 -7 5 -16
0 -20 -5 -3 -9 -22 -9 -41 0 -19 -6 -52 -12 -74 -22 -66 -13 -85 9 -21 18 51
21 85 22 225 1 170 -2 205 -30 325 -17 70 -41 130 -29 70z"/>
<path d="M1454 1408 c18 -53 39 -139 46 -192 7 -53 16 -96 20 -96 5 0 6 19 3
43 -11 103 -24 182 -32 191 -5 6 -17 34 -26 63 -9 28 -23 60 -31 70 -7 10 2
-25 20 -79z"/>
<path d="M621 1474 c0 -11 3 -14 6 -6 3 7 2 16 -1 19 -3 4 -6 -2 -5 -13z"/>
<path d="M1400 1467 c0 -10 9 -43 20 -75 12 -31 23 -73 26 -92 2 -19 11 -66
19 -105 7 -38 17 -94 21 -123 4 -29 11 -55 16 -58 5 -4 7 8 4 28 -3 18 -13 80
-21 138 -9 58 -25 138 -36 179 -21 80 -48 139 -49 108z"/>
<path d="M842 1420 c0 -14 2 -19 5 -12 2 6 2 18 0 25 -3 6 -5 1 -5 -13z"/>
<path d="M1251 1429 c-1 -9 8 -36 18 -60 24 -54 58 -218 67 -321 7 -75 6 -78
-15 -78 -12 0 -21 6 -21 15 0 8 5 15 10 15 6 0 10 5 10 10 0 6 -8 10 -17 10
-14 0 -15 2 -4 9 11 7 10 11 -5 20 -11 6 -13 11 -6 11 30 0 -6 248 -49 332
-29 56 -36 33 -9 -29 11 -26 20 -57 19 -68 -1 -11 -1 -38 0 -60 1 -30 4 -36
11 -25 7 11 10 6 10 -20 1 -19 3 -50 4 -68 2 -18 0 -35 -5 -38 -5 -3 -6 -16
-3 -30 3 -13 4 -24 0 -24 -3 0 -9 14 -13 31 -5 16 -12 29 -16 27 -12 -5 -96
134 -97 159 0 13 -6 22 -12 20 -7 -1 -13 7 -13 17 0 11 -6 21 -13 24 -6 2 -12
10 -12 18 0 7 -9 28 -21 46 l-20 33 4 -36 c5 -39 45 -119 59 -119 5 0 6 -4 3
-10 -3 -5 -1 -10 4 -10 6 0 11 -7 11 -15 0 -8 32 -60 70 -115 79 -112 98 -151
53 -105 -16 17 -29 33 -29 36 1 4 -2 7 -6 8 -26 3 -30 -1 -13 -12 11 -9 15
-19 10 -27 -5 -8 -4 -11 3 -6 6 3 13 2 17 -4 3 -5 -7 -12 -22 -15 -15 -3 -48
-15 -72 -26 -24 -11 -46 -17 -49 -14 -3 3 -1 5 4 5 11 0 12 205 1 216 -4 4 -8
-38 -8 -94 -1 -56 -2 -105 -3 -109 -7 -30 -21 -61 -34 -76 -32 -36 0 -29 41
10 33 32 56 44 109 57 86 21 138 21 138 1 0 -8 -8 -15 -17 -15 -14 0 -18 -9
-19 -45 -1 -31 -9 -55 -27 -78 -17 -23 -23 -38 -16 -48 8 -13 13 -5 9 16 -1 6
5 4 12 -4 10 -11 10 -14 1 -18 -7 -3 -13 -13 -13 -24 0 -13 -5 -17 -17 -13
-15 5 -15 4 -3 -5 13 -9 12 -14 -6 -38 -34 -47 -37 -53 -19 -47 9 4 14 9 11
12 -3 2 6 13 19 24 14 10 30 37 36 58 7 22 16 37 20 34 5 -3 6 2 3 10 -3 9
-11 16 -18 16 -7 0 -6 3 2 9 8 4 16 27 19 50 3 23 10 44 15 47 6 4 8 -6 4 -25
-16 -80 -14 -92 5 -36 24 71 37 254 21 288 -6 12 -16 47 -22 77 -6 30 -16 75
-22 100 -14 53 -67 162 -67 139z"/>
<path d="M1651 1435 c0 -5 15 -64 34 -130 28 -100 33 -112 30 -70 -1 28 -5 57
-8 65 -4 8 -17 44 -31 80 -14 36 -25 61 -25 55z"/>
<path d="M1612 1370 c0 -14 2 -19 5 -12 2 6 2 18 0 25 -3 6 -5 1 -5 -13z"/>
<path d="M813 1320 c0 -30 2 -43 4 -27 2 15 2 39 0 55 -2 15 -4 2 -4 -28z"/>
<path d="M341 1294 c0 -11 3 -14 6 -6 3 7 2 16 -1 19 -3 4 -6 -2 -5 -13z"/>
<path d="M481 1153 c0 -88 7 -179 16 -223 l15 -75 92 0 c78 -1 99 -5 132 -24
21 -13 46 -25 56 -26 16 -4 17 -2 2 21 -9 13 -20 22 -24 19 -13 -8 -68 64 -97
127 -15 32 -28 56 -30 54 -3 -3 14 -97 23 -125 3 -10 8 -11 18 -2 11 9 15 8
20 -6 4 -10 4 -14 1 -11 -4 4 -18 3 -31 -2 -17 -7 -27 -5 -37 5 -8 8 -18 11
-22 7 -5 -4 -5 -1 -1 6 4 7 0 29 -10 50 -9 20 -25 68 -35 107 l-19 70 6 -95
c3 -52 7 -107 10 -122 5 -23 2 -28 -14 -28 -23 0 -53 70 -58 139 -4 43 -3 42
16 -24 21 -69 47 -116 36 -65 -3 14 -8 61 -12 105 -6 63 -9 74 -15 50 -5 -23
-7 -18 -6 25 0 30 2 45 4 33 9 -46 20 -21 22 49 1 39 4 75 7 80 3 4 1 8 -5 8
-13 0 -24 -38 -23 -79 1 -24 -2 -31 -9 -24 -5 5 -11 35 -12 66 -1 32 -5 57
-10 57 -4 0 -7 -66 -6 -147z m114 -243 c6 -28 5 -33 -5 -23 -7 6 -14 29 -16
50 -3 44 10 27 21 -27z"/>
<path d="M874 1212 c-1 -68 -38 -224 -73 -305 l-19 -44 37 -41 c30 -34 87 -70
96 -60 4 5 -64 65 -68 61 -2 -2 -12 6 -22 17 -15 17 -16 22 -4 37 9 11 10 14
2 9 -8 -4 -13 -2 -13 4 0 14 31 72 44 81 4 4 5 17 1 29 -4 13 -3 20 2 17 5 -4
10 -1 11 6 3 32 14 95 21 124 5 18 8 41 6 50 -2 10 -4 33 -4 51 -2 61 -16 32
-17 -36z"/>
<path d="M1676 1230 c3 -30 11 -59 16 -65 7 -7 8 5 3 35 -12 71 -26 94 -19 30z"/>
<path d="M1070 1258 c0 -28 23 -82 44 -104 50 -51 82 -95 58 -80 -4 2 -8 -4
-8 -15 0 -18 2 -19 12 -4 9 12 13 13 17 3 2 -7 7 -10 11 -7 3 3 -4 18 -16 34
-12 15 -43 64 -70 108 -26 44 -48 73 -48 65z"/>
<path d="M809 1223 c-1 -10 -3 -35 -4 -55 -2 -21 0 -38 6 -38 5 0 9 25 9 55 0
30 -2 55 -5 55 -3 0 -5 -8 -6 -17z"/>
<path d="M341 1214 c0 -11 3 -14 6 -6 3 7 2 16 -1 19 -3 4 -6 -2 -5 -13z"/>
<path d="M127 1183 c-4 -3 -7 -11 -7 -17 0 -6 5 -5 12 2 6 6 9 14 7 17 -3 3
-9 2 -12 -2z"/>
<path d="M936 1148 c-4 -24 -2 -74 3 -113 l8 -70 2 113 c1 117 -4 142 -13 70z"/>
<path d="M1887 1100 c3 -41 11 -104 18 -140 l13 -65 1 70 c0 40 -8 100 -18
140 l-19 70 5 -75z"/>
<path d="M105 1124 c-4 -16 -8 -35 -11 -41 -2 -7 0 -23 5 -35 6 -17 9 -8 14
37 6 64 2 85 -8 39z"/>
<path d="M1690 1033 l4 -118 6 90 6 90 2 -100 c4 -214 56 -565 97 -660 7 -16
25 -61 39 -100 34 -88 75 -166 76 -142 0 10 -9 35 -19 55 -45 88 -113 360
-125 502 -8 84 -35 322 -42 361 -18 108 -27 139 -37 139 -9 0 -11 -31 -7 -117z"/>
<path d="M1852 1079 c0 -37 -2 -71 -6 -78 -4 -6 -3 -11 3 -11 6 0 7 -7 4 -17
-5 -12 -3 -14 7 -8 8 5 11 4 7 -2 -3 -5 1 -36 9 -69 20 -78 23 -88 30 -81 5 5
-41 298 -51 322 -2 6 -3 -20 -3 -56z"/>
<path d="M1255 1100 c3 -5 8 -10 11 -10 2 0 4 5 4 10 0 6 -5 10 -11 10 -5 0
-7 -4 -4 -10z"/>
<path d="M1555 1090 c-3 -5 -1 -10 4 -10 6 0 11 5 11 10 0 6 -2 10 -4 10 -3 0
-8 -4 -11 -10z"/>
<path d="M1020 1024 c0 -32 -4 -74 -10 -93 -5 -19 -12 -57 -15 -85 l-6 -51 22
21 c20 20 21 31 20 140 -1 65 -4 120 -7 123 -2 2 -4 -22 -4 -55z"/>
<path d="M1405 1060 c-3 -5 -8 -33 -10 -62 -3 -35 -2 -44 3 -28 l8 25 6 -24
c4 -13 11 -20 17 -16 6 3 11 1 11 -6 0 -7 3 -10 6 -6 4 3 -3 18 -15 33 -16 20
-20 36 -16 61 5 33 1 42 -10 23z"/>
<path d="M75 1041 c-3 -6 -2 -27 4 -46 5 -21 6 -35 0 -35 -5 0 -9 -12 -9 -28
0 -15 -15 -88 -34 -162 -23 -93 -30 -139 -24 -147 6 -7 6 -13 1 -13 -5 0 -10
-15 -11 -32 -2 -31 0 -30 23 18 73 149 89 238 72 384 -9 70 -11 77 -22 61z
m-1 -237 c3 -8 2 -12 -4 -9 -6 3 -10 10 -10 16 0 14 7 11 14 -7z m-17 -36 c-3
-8 -6 -5 -6 6 -1 11 2 17 5 13 3 -3 4 -12 1 -19z m-20 -90 c-3 -7 -5 -2 -5 12
0 14 2 19 5 13 2 -7 2 -19 0 -25z"/>
<path d="M1477 973 c-3 -21 -6 -94 -6 -163 -1 -69 -7 -148 -14 -176 -14 -54
-8 -165 7 -131 5 9 6 33 4 51 -2 21 0 32 6 29 5 -4 7 1 3 11 -4 10 -4 23 0 29
7 12 16 387 9 387 -2 0 -6 -17 -9 -37z"/>
<path d="M1505 874 c0 -62 3 -106 7 -96 9 23 10 200 1 205 -5 3 -8 -46 -8
-109z"/>
<path d="M1393 933 c-7 -2 -13 -17 -13 -33 0 -15 -7 -47 -16 -71 -9 -24 -20
-79 -24 -122 -6 -53 -19 -100 -39 -144 -17 -36 -31 -80 -31 -98 0 -52 -25 -99
-80 -148 -27 -25 -50 -48 -50 -52 0 -12 98 47 125 75 24 25 27 59 4 45 -5 -4
-6 2 -2 11 4 11 8 13 11 6 2 -7 9 -9 14 -6 7 5 8 2 3 -5 -5 -9 -1 -9 14 1 12
7 27 28 33 46 7 17 15 32 20 32 17 0 69 132 83 211 8 46 15 85 15 87 0 1 -5 2
-11 2 -5 0 -8 -4 -5 -8 5 -8 -13 -67 -27 -90 -5 -7 -6 -21 -2 -31 3 -11 -1
-25 -9 -34 -9 -8 -12 -23 -9 -36 3 -11 1 -21 -5 -21 -5 0 -13 -15 -16 -34 -6
-29 -22 -47 -48 -50 -3 -1 -10 -5 -15 -9 -4 -5 -3 -7 4 -5 6 2 11 -1 11 -7 -1
-23 -11 -35 -30 -35 -12 0 -18 5 -16 13 52 142 104 359 92 379 -4 6 -3 8 3 5
7 -4 13 17 17 56 4 34 13 65 19 69 13 8 -1 9 -20 1z"/>
<path d="M942 900 c0 -14 2 -19 5 -12 2 6 2 18 0 25 -3 6 -5 1 -5 -13z"/>
<path d="M1237 909 c-11 -6 -33 -9 -50 -6 -18 3 -26 3 -19 0 6 -2 9 -9 6 -15
-5 -7 3 -9 22 -4 16 4 38 8 49 10 11 2 23 4 28 5 4 0 7 6 7 11 0 13 -20 12
-43 -1z"/>
<path d="M1687 795 c6 -119 10 -170 13 -170 2 0 11 -90 13 -132 1 -17 5 -29
10 -26 4 2 8 -4 9 -14 2 -28 4 -36 16 -66 7 -16 12 -32 12 -37 0 -5 9 -25 19
-44 21 -37 46 -113 44 -133 0 -7 3 -11 7 -8 5 3 11 -8 15 -25 4 -16 11 -30 16
-30 5 0 9 -6 9 -14 0 -8 11 -28 25 -43 20 -22 15 -6 -23 72 -97 195 -139 355
-162 600 -15 174 -31 220 -23 70z"/>
<path d="M1082 850 c-23 -17 -47 -30 -52 -30 -16 0 -12 -17 5 -24 8 -3 15 -1
15 5 0 6 5 7 10 4 6 -4 22 0 35 9 27 18 39 21 31 8 -3 -5 4 -16 16 -26 15 -13
29 -16 57 -11 37 7 81 39 81 61 0 17 -30 26 -46 13 -7 -6 -18 -8 -24 -4 -5 3
-17 -1 -26 -10 -15 -15 -15 -17 1 -35 22 -24 9 -27 -16 -4 -11 10 -17 27 -15
43 2 14 1 20 -1 13 -4 -11 -7 -10 -16 2 -11 13 -17 11 -55 -14z m139 -33 c-7
-7 -14 -8 -21 -1 -6 6 -2 10 12 11 16 2 18 -1 9 -10z"/>
<path d="M1447 867 c-11 -29 -9 -53 4 -40 6 6 9 21 7 34 -3 21 -4 22 -11 6z"/>
<path d="M1 834 c0 -11 3 -14 6 -6 3 7 2 16 -1 19 -3 4 -6 -2 -5 -13z"/>
<path d="M12 793 c-7 -22 -12 -49 -11 -59 0 -11 7 3 15 29 8 27 14 53 12 59
-2 6 -9 -7 -16 -29z"/>
<path d="M136 798 c-13 -20 -15 -31 -7 -45 9 -16 10 -14 11 10 0 16 4 26 10
22 6 -3 10 -22 10 -41 0 -19 -4 -33 -9 -30 -5 4 -7 -4 -3 -16 4 -16 7 -18 10
-8 3 8 9 17 13 20 4 3 2 30 -4 60 l-13 55 -18 -27z"/>
<path d="M640 811 c0 -5 20 -9 45 -9 25 1 45 5 45 10 0 4 -20 8 -45 8 -25 0
-45 -4 -45 -9z"/>
<path d="M768 762 c3 -26 8 -28 43 -28 38 0 49 8 29 21 -6 4 -17 2 -25 -5 -10
-8 -15 -8 -21 1 -4 7 -3 9 4 5 6 -3 13 -2 17 3 5 10 -24 31 -43 31 -5 0 -7
-13 -4 -28z"/>
<path d="M680 764 c0 -7 6 -15 13 -17 9 -4 9 -6 0 -6 -6 -1 -15 4 -18 9 -7 12
-25 13 -25 2 0 -13 54 -39 72 -35 17 4 34 40 24 50 -12 12 -66 10 -66 -3z"/>
<path d="M260 765 c0 -4 17 -35 37 -69 21 -33 37 -64 36 -67 -1 -4 5 -6 14 -5
9 0 23 -10 30 -24 7 -14 13 -22 13 -17 0 4 8 -1 18 -10 11 -10 17 -21 15 -25
-2 -3 2 -19 9 -35 6 -15 10 -34 9 -40 -1 -7 2 -13 8 -13 15 0 32 -58 18 -64
-7 -2 -4 -5 5 -5 9 -1 20 -6 24 -13 5 -7 3 -8 -6 -3 -9 5 -10 2 -5 -14 5 -15
3 -19 -8 -15 -7 2 -20 -2 -27 -11 -7 -8 -17 -15 -23 -15 -16 0 -67 -51 -67
-67 0 -7 -6 -12 -12 -11 -8 2 -12 -5 -10 -15 2 -10 -2 -25 -8 -32 -12 -15 -27
-204 -16 -193 4 3 9 32 10 65 3 58 33 156 60 198 8 13 39 34 67 49 l53 26 35
-32 34 -33 -22 38 c-41 68 -81 156 -97 217 -14 50 -24 63 -60 90 -24 17 -44
37 -44 45 0 8 -8 20 -18 27 -9 7 -30 28 -45 46 -15 19 -27 30 -27 27z"/>
<path d="M850 761 c0 -5 7 -17 16 -25 12 -13 20 -14 37 -5 29 16 37 24 13 15
-11 -4 -29 0 -42 9 -13 9 -24 11 -24 6z"/>
<path d="M1168 763 c6 -3 10 -9 6 -14 -3 -5 5 -9 18 -10 13 0 32 -2 44 -3 16
-2 20 2 17 15 -4 13 -15 17 -51 17 -26 0 -41 -3 -34 -5z"/>
<path d="M196 723 c4 -29 3 -43 -5 -43 -13 0 -14 -49 -1 -70 7 -11 10 -7 10
18 0 20 4 31 10 27 16 -10 12 49 -5 81 l-15 29 6 -42z"/>
<path d="M90 682 c-14 -31 -24 -63 -24 -69 1 -7 -1 -11 -5 -8 -13 7 -61 -105
-61 -142 0 -35 3 -32 65 68 65 104 73 131 57 186 -6 18 -11 13 -32 -35z"/>
<path d="M1285 665 c-20 -35 -33 -69 -30 -76 8 -12 -29 -51 -39 -42 -3 4 -6
-1 -6 -11 0 -9 -4 -14 -10 -11 -5 3 -10 1 -10 -5 0 -6 -13 -16 -29 -21 -16 -6
-32 -16 -35 -24 -2 -7 -16 -12 -29 -11 -19 2 -24 -1 -19 -12 4 -12 0 -14 -16
-10 -12 4 -20 3 -17 -2 3 -4 -2 -13 -10 -20 -17 -14 -87 -7 -141 16 -19 8 -39
12 -45 8 -5 -3 -17 0 -25 7 -8 6 -17 9 -21 6 -7 -8 -85 33 -96 51 -5 7 -14 9
-20 6 -7 -4 -9 -4 -5 1 4 4 -5 23 -20 41 -41 49 -67 88 -65 96 2 4 -6 12 -16
18 -18 9 -18 8 1 -33 36 -75 85 -132 138 -161 56 -31 236 -86 280 -86 29 0
168 80 239 138 24 19 49 49 56 66 13 30 35 136 29 136 -2 0 -19 -29 -39 -65z
m-7 -55 c-7 -10 -14 -17 -17 -15 -4 4 18 35 25 35 2 0 -1 -9 -8 -20z"/>
<path d="M1362 595 c-34 -101 -38 -120 -22 -110 6 4 8 10 5 15 -3 4 -2 10 3
12 9 3 55 168 49 174 -2 2 -18 -39 -35 -91z"/>
<path d="M231 652 c-6 -11 -11 -30 -11 -41 0 -12 -3 -21 -7 -21 -5 0 -9 -17
-9 -37 -1 -21 -4 -51 -8 -68 l-6 -30 11 30 c7 17 16 33 22 36 5 4 7 21 4 38
-4 18 -3 30 2 26 14 -8 35 65 23 77 -7 7 -14 4 -21 -10z"/>
<path d="M1798 583 c31 -142 91 -369 106 -403 l16 -35 -2 38 c-1 20 -6 37 -11
37 -4 0 -5 5 -2 10 3 6 0 10 -7 10 -10 0 -10 2 1 9 16 10 19 -3 -56 244 -50
163 -71 206 -45 90z"/>
<path d="M270 623 c0 -10 -22 -82 -49 -160 -26 -79 -47 -143 -46 -143 6 0 59
84 61 95 8 53 63 185 78 185 5 0 0 9 -12 20 -26 25 -32 25 -32 3z"/>
<path d="M522 630 c2 -8 15 -21 29 -27 13 -7 23 -18 21 -24 -4 -15 56 -109 87
-136 25 -22 26 -22 4 -23 -12 0 -29 10 -37 22 -9 12 -16 18 -16 13 0 -4 -11 2
-25 15 -14 13 -25 28 -25 33 0 6 12 0 26 -14 24 -21 26 -22 16 -3 -12 23 -42
51 -42 39 0 -4 -7 -2 -15 5 -13 11 -13 7 0 -30 9 -24 17 -55 20 -70 3 -15 11
-43 19 -62 16 -39 41 -48 122 -48 26 0 44 -5 44 -11 0 -13 -130 -8 -162 6 -23
9 -22 -4 1 -35 19 -24 20 -24 40 -6 12 11 21 15 21 10 0 -13 91 -4 106 10 9 9
7 17 -7 34 -12 15 -20 19 -25 11 -4 -7 -9 -8 -13 -1 -3 6 -28 12 -56 14 -36 2
-50 8 -51 18 0 8 -6 28 -12 44 -15 34 -9 47 8 16 6 -12 14 -19 17 -16 3 3 13
1 23 -4 12 -6 23 -5 36 4 18 14 18 15 -1 36 l-20 22 32 -18 c17 -10 29 -23 26
-28 -4 -5 3 -7 15 -4 12 3 22 2 24 -3 4 -13 78 -21 78 -9 0 6 -9 10 -21 10
-62 0 -194 100 -220 168 -5 12 -14 22 -20 22 -7 0 -21 8 -32 18 -16 13 -19 14
-15 2z m98 -350 c0 -5 -5 -10 -11 -10 -5 0 -7 5 -4 10 3 6 8 10 11 10 2 0 4
-4 4 -10z"/>
<path d="M160 618 c0 -7 5 -20 10 -28 8 -12 10 -11 10 7 0 12 -4 25 -10 28 -5
3 -10 0 -10 -7z"/>
<path d="M340 591 c0 -5 7 -12 16 -15 14 -5 15 -4 4 9 -14 17 -20 19 -20 6z"/>
<path d="M78 495 c-69 -98 -97 -153 -64 -126 15 13 19 13 27 0 7 -10 8 -8 7
11 -2 16 2 24 10 22 6 -1 11 1 11 5 -3 16 2 29 19 50 l17 23 0 -25 c0 -14 -6
-25 -12 -25 -7 0 -13 -7 -13 -16 0 -9 5 -12 13 -8 10 6 10 4 0 -7 -7 -7 -13
-22 -13 -33 0 -12 -5 -28 -10 -36 -7 -11 -9 -5 -5 20 5 34 5 34 -5 6 -6 -19
-6 -34 0 -41 6 -8 3 -25 -9 -49 -12 -23 -21 -32 -25 -24 -3 7 -3 3 0 -9 3 -13
1 -23 -5 -23 -6 0 -8 -7 -5 -15 4 -8 2 -15 -3 -15 -4 0 -9 -28 -10 -62 -1 -51
0 -56 6 -28 8 36 33 107 70 195 30 74 81 243 81 270 0 13 -4 26 -8 29 -5 3
-38 -37 -74 -89z"/>
<path d="M540 583 c0 -4 5 -15 10 -23 8 -13 10 -13 10 2 0 9 -4 20 -10 23 -5
3 -10 3 -10 -2z"/>
<path d="M491 507 c16 -30 31 -71 34 -92 5 -40 29 -85 46 -85 5 0 -2 17 -16
37 -26 40 -35 72 -10 39 18 -24 18 -23 0 37 -8 26 -14 51 -15 55 0 15 -41 62
-54 62 -10 0 -6 -15 15 -53z"/>
<path d="M1409 511 c-14 -32 -14 -42 -3 -62 l13 -24 1 25 c1 14 3 42 6 63 3
20 3 37 2 37 -2 0 -10 -18 -19 -39z"/>
<path d="M1239 508 c-25 -23 -133 -95 -178 -118 -43 -21 -73 -23 -128 -5 -20
6 -23 4 -23 -17 0 -27 30 -58 75 -77 25 -11 31 -10 41 3 17 23 28 20 48 -16
10 -18 13 -27 5 -20 -22 21 -26 14 -19 -35 4 -26 5 -53 3 -60 -3 -7 -1 -13 5
-13 12 0 24 29 16 41 -3 5 3 17 12 27 17 16 18 16 11 -1 -3 -9 -2 -17 4 -17 5
0 3 -13 -6 -30 -9 -16 -20 -30 -25 -30 -5 0 -7 -7 -4 -14 5 -13 2 -13 -20 -3
-14 7 -26 16 -26 20 0 10 -26 37 -34 37 -3 0 -6 -7 -6 -15 0 -14 74 -75 91
-75 5 0 23 19 39 42 37 51 34 74 -16 135 -20 24 -30 43 -23 43 9 0 8 5 -3 16
-17 17 -74 12 -64 -5 3 -4 -1 -8 -9 -8 -8 0 -12 4 -9 8 2 4 -10 10 -27 14 -23
5 -28 10 -20 18 9 9 17 8 31 -1 24 -15 41 -16 20 -1 -12 8 -7 9 18 6 17 -2 32
0 32 5 0 4 7 8 15 8 8 0 15 -5 15 -11 0 -17 21 1 31 28 5 13 13 22 18 19 5 -3
11 1 15 9 3 9 12 12 23 8 10 -3 15 -3 11 2 -9 9 20 34 40 35 16 0 8 -70 -10
-81 -7 -5 -8 -9 -3 -9 12 0 -16 -20 -29 -20 -5 0 -2 8 5 18 12 15 11 14 -8 -1
-12 -11 -26 -16 -32 -12 -6 3 -8 0 -5 -8 3 -8 0 -18 -7 -23 -8 -5 -10 -3 -4 7
5 8 -1 5 -14 -5 -14 -13 -18 -23 -12 -29 15 -15 101 42 125 82 10 18 20 47 22
65 1 17 5 39 9 49 10 23 1 31 -16 15z m-139 -128 c0 -5 -4 -10 -10 -10 -5 0
-10 5 -10 10 0 6 5 10 10 10 6 0 10 -4 10 -10z"/>
<path d="M401 495 c0 -5 3 -16 8 -23 7 -11 9 -10 14 3 4 9 3 14 -2 10 -5 -3
-12 1 -14 7 -3 7 -6 9 -6 3z"/>
<path d="M1450 464 c0 -8 5 -12 10 -9 6 3 10 10 10 16 0 5 -4 9 -10 9 -5 0
-10 -7 -10 -16z"/>
<path d="M147 414 c-9 -31 -42 -117 -71 -192 -52 -132 -79 -231 -59 -219 5 3
15 30 22 60 6 29 41 113 76 186 50 102 65 143 65 177 0 24 -3 44 -7 44 -5 0
-16 -25 -26 -56z"/>
<path d="M1205 440 c3 -5 8 -10 11 -10 2 0 4 5 4 10 0 6 -5 10 -11 10 -5 0 -7
-4 -4 -10z"/>
<path d="M1368 421 c-9 -18 -12 -28 -5 -25 13 5 39 54 29 54 -4 0 -15 -13 -24
-29z"/>
<path d="M840 402 c0 -6 6 -12 13 -15 7 -3 1 -9 -15 -15 -14 -6 -29 -16 -34
-23 -5 -9 -2 -10 10 -6 10 4 26 7 36 7 17 0 48 36 38 45 -11 9 -48 15 -48 7z"/>
<path d="M1297 346 c-20 -22 -46 -54 -58 -70 -12 -15 -35 -36 -51 -46 l-29
-17 37 -33 c49 -43 144 -154 144 -169 0 -13 17 -15 25 -2 3 5 0 13 -6 16 -5 4
-8 14 -5 22 4 9 2 11 -6 7 -7 -5 -9 -2 -5 9 4 12 2 14 -11 10 -9 -3 -14 -3
-11 1 4 4 -6 21 -22 39 -16 17 -27 38 -24 45 3 7 1 11 -4 8 -5 -3 -20 3 -35
15 -22 17 -24 23 -13 40 6 10 17 19 24 19 7 0 13 7 13 16 0 8 4 12 10 9 6 -3
7 1 4 9 -3 9 -2 16 4 16 5 0 12 9 15 21 5 17 9 19 26 10 17 -10 20 -9 15 4 -3
8 -11 12 -16 9 -6 -4 -9 -1 -6 7 3 8 15 19 27 25 16 8 18 13 9 17 -8 2 -30
-13 -51 -37z"/>
<path d="M824 325 c-10 -8 -14 -15 -7 -15 7 0 24 -11 38 -25 27 -28 34 -45 10
-25 -9 8 -15 8 -15 2 0 -6 9 -13 19 -17 11 -3 25 -13 33 -23 12 -15 11 -16 -4
-3 -14 10 -18 10 -18 1 0 -8 -4 -9 -12 -3 -7 5 -26 7 -43 3 -27 -5 -24 -7 25
-15 30 -5 60 -9 67 -8 6 0 9 -6 6 -13 -6 -17 -9 -17 -69 1 -27 8 -51 15 -54
15 -13 -1 47 -29 63 -30 23 0 22 -8 -5 -32 -13 -11 -17 -17 -10 -13 6 3 12 3
12 0 0 -3 -14 -11 -31 -17 -16 -6 -28 -13 -25 -15 3 -3 -5 -14 -17 -24 -12
-10 -18 -18 -14 -19 5 0 1 -7 -7 -16 -20 -19 -21 -34 -2 -34 7 0 26 17 41 38
15 20 53 60 85 87 32 28 61 56 64 64 4 8 -11 32 -38 61 -24 25 -47 56 -50 68
-9 26 -15 27 -42 7z"/>
<path d="M1430 308 c0 -19 247 -62 257 -44 3 6 3 8 -2 4 -4 -4 -14 -3 -21 3
-8 6 -33 12 -56 12 -24 1 -46 6 -49 11 -4 5 -25 9 -48 9 -23 0 -41 3 -41 8 0
4 -9 7 -20 6 -11 -1 -20 -5 -20 -9z"/>
<path d="M438 285 c-46 -31 -73 -87 -92 -190 -2 -11 0 -38 4 -60 l8 -40 1 36
c0 20 7 57 15 82 8 26 10 45 5 42 -4 -3 -2 7 6 22 8 15 15 33 15 40 0 16 39
53 70 65 28 11 70 -7 70 -29 0 -8 5 -11 10 -8 6 4 18 1 26 -6 8 -6 16 -10 19
-8 6 7 -94 79 -108 79 -7 0 -29 -11 -49 -25z"/>
<path d="M123 224 c-40 -76 -88 -212 -79 -222 8 -8 26 9 20 19 -5 9 11 51 54
138 9 19 16 39 14 43 -1 4 2 8 7 8 11 0 34 65 29 82 -2 6 -23 -24 -45 -68z"/>
<path d="M1412 286 c4 -26 112 -56 202 -56 85 0 83 7 -4 15 -82 8 -182 33
-193 48 -5 8 -7 5 -5 -7z"/>
<path d="M726 255 c4 -8 1 -15 -5 -15 -6 0 -11 -7 -11 -15 0 -9 -22 -63 -49
-120 -27 -58 -46 -105 -42 -105 9 0 47 76 90 179 33 79 36 91 21 91 -5 0 -7
-7 -4 -15z"/>
<path d="M1731 213 c45 -48 67 -84 74 -120 3 -15 9 -44 13 -63 8 -32 9 -33 16
-12 4 13 3 28 -3 35 -5 7 -13 32 -17 55 -3 23 -10 39 -15 36 -5 -3 -9 7 -9 21
0 14 -4 24 -9 21 -8 -5 -23 17 -25 37 -1 11 -28 27 -46 27 -8 0 -1 -14 21 -37z"/>
<path d="M654 224 c18 -17 21 -34 7 -34 -5 0 -8 -12 -8 -27 0 -25 2 -23 19 16
10 24 16 46 13 49 -3 3 -5 -1 -5 -9 -1 -10 -3 -9 -11 4 -5 9 -15 17 -20 17 -6
0 -3 -7 5 -16z"/>
<path d="M1687 224 c-3 -4 5 -17 19 -31 13 -13 21 -29 18 -35 -4 -7 -2 -8 5
-4 16 10 51 -69 51 -116 0 -22 5 -38 11 -38 17 0 6 66 -19 120 -23 49 -76 113
-85 104z"/>
<path d="M1471 204 c0 -11 3 -14 6 -6 3 7 2 16 -1 19 -3 4 -6 -2 -5 -13z"/>
<path d="M1464 119 c5 -40 50 -119 67 -119 6 0 -3 24 -20 53 -17 29 -35 64
-41 77 -9 23 -10 21 -6 -11z"/>
<path d="M1490 143 c0 -12 69 -130 70 -119 0 13 -51 115 -61 122 -5 3 -9 2 -9
-3z"/>
<path d="M702 105 c-17 -37 -14 -45 4 -12 9 16 14 31 11 33 -2 2 -9 -7 -15
-21z"/>
<path d="M1200 125 c0 -5 5 -17 10 -25 5 -8 10 -10 10 -5 0 6 -5 17 -10 25 -5
8 -10 11 -10 5z"/>
<path d="M967 107 c-3 -7 3 -13 14 -13 13 0 15 3 7 13 -6 7 -12 13 -13 13 -2
0 -5 -6 -8 -13z"/>
<path d="M935 101 c-3 -5 -2 -12 3 -15 5 -3 9 1 9 9 0 17 -3 19 -12 6z"/>
<path d="M550 65 c0 -30 11 -65 21 -65 13 0 10 32 -6 60 -13 22 -14 23 -15 5z"/>
<path d="M1131 63 c-1 -12 4 -25 9 -28 12 -7 12 2 0 30 -8 19 -9 19 -9 -2z"/>
<path d="M1440 76 c0 -14 44 -76 53 -76 9 0 9 2 1 8 -6 4 -19 22 -28 40 -15
28 -26 41 -26 28z"/>
<path d="M1010 66 c0 -2 7 -7 16 -10 8 -3 12 -2 9 4 -6 10 -25 14 -25 6z"/>
<path d="M513 31 c0 -19 5 -31 14 -31 7 0 13 6 13 13 0 7 -6 21 -13 31 -12 17
-14 16 -14 -13z"/>
<path d="M665 31 c-9 -18 -11 -31 -5 -31 11 0 34 50 26 57 -2 3 -12 -9 -21
-26z"/>
<path d="M1283 3 c9 -2 25 -2 35 0 9 3 1 5 -18 5 -19 0 -27 -2 -17 -5z"/>
</g>
</svg>
